HIERARCHY
ROOT RootJoint
{
    OFFSET   0.000000   0.000000   0.000000
    CHANNELS 6 Xposition Yposition Zposition Xrotation Yrotation Zrotation
    JOINT pelvis_lowerback
    {
        OFFSET   0.000000   0.093605   0.000000
        CHANNELS 3 Xrotation Yrotation Zrotation
        JOINT lowerback_torso
        {
            OFFSET   0.000000   0.100000   0.000000
            CHANNELS 3 Xrotation Yrotation Zrotation
            JOINT torso_head
            {
                OFFSET   0.000000   0.282350   0.000000
                CHANNELS 3 Xrotation Yrotation Zrotation
                End Site
                {
                    OFFSET   0.000000   0.192650   0.000000
                }
            }
            JOINT rTorso_Clavicle
            {
                OFFSET  -0.001000   0.157500   0.000000
                CHANNELS 3 Xrotation Yrotation Zrotation
                JOINT rShoulder
                {
                    OFFSET  -0.117647   0.000000   0.000000
                    CHANNELS 3 Xrotation Yrotation Zrotation
                    JOINT rElbow
                    {
                        OFFSET  -0.245000   0.000000   0.000000
                        CHANNELS 3 Xrotation Yrotation Zrotation
                        JOINT rWrist
                        {
                            OFFSET  -0.240000   0.000000   0.000000
                            CHANNELS 3 Xrotation Yrotation Zrotation
                            End Site
                            {
                                OFFSET  -0.116353  -0.002500   0.000000
                            }
                        }
                    }
                }
            }
            JOINT lTorso_Clavicle
            {
                OFFSET   0.001000   0.157500   0.000000
                CHANNELS 3 Xrotation Yrotation Zrotation
                JOINT lShoulder
                {
                    OFFSET   0.117647   0.000000   0.000000
                    CHANNELS 3 Xrotation Yrotation Zrotation
                    JOINT lElbow
                    {
                        OFFSET   0.245000   0.000000   0.000000
                        CHANNELS 3 Xrotation Yrotation Zrotation
                        JOINT lWrist
                        {
                            OFFSET   0.240000   0.000000   0.000000
                            CHANNELS 3 Xrotation Yrotation Zrotation
                            End Site
                            {
                                OFFSET   0.116353  -0.002500   0.000000
                            }
                        }
                    }
                }
            }
        }
    }
    JOINT rHip
    {
        OFFSET  -0.100000  -0.051395   0.000000
        CHANNELS 3 Xrotation Yrotation Zrotation
        JOINT rKnee
        {
            OFFSET   0.000000  -0.410000   0.000000
            CHANNELS 3 Xrotation Yrotation Zrotation
            JOINT rAnkle
            {
                OFFSET   0.000000  -0.390000   0.000000
                CHANNELS 3 Xrotation Yrotation Zrotation
                JOINT rToeJoint
                {
                    OFFSET   0.000000  -0.050000   0.130000
                    CHANNELS 3 Xrotation Yrotation Zrotation
                    End Site
                    {
                        OFFSET  -0.010000   0.002000   0.060000
                    }
                }
            }
        }
    }
    JOINT lHip
    {
        OFFSET   0.100000  -0.051395   0.000000
        CHANNELS 3 Xrotation Yrotation Zrotation
        JOINT lKnee
        {
            OFFSET   0.000000  -0.410000   0.000000
            CHANNELS 3 Xrotation Yrotation Zrotation
            JOINT lAnkle
            {
                OFFSET   0.000000  -0.390000   0.000000
                CHANNELS 3 Xrotation Yrotation Zrotation
                JOINT lToeJoint
                {
                    OFFSET   0.000000  -0.050000   0.130000
                    CHANNELS 3 Xrotation Yrotation Zrotation
                    End Site
                    {
                        OFFSET   0.010000   0.002000   0.060000
                    }
                }
            }
        }
    }
}
MOTION
Frames: 15
Frame Time:   0.008333
 -2.305432   0.862091   3.641411 -14.907526 -18.273177  -6.535750  29.403901   2.777482   0.087725   9.601634   0.343465   0.336373  -3.481213  -4.156427   0.999282  -0.401067   8.360823   0.058940   5.575894  15.253462  48.358216  -0.031987  62.476051   0.026314   1.174908   3.279950  -4.594755   5.027570   0.162655  -0.295794  17.075832  -3.787429 -56.334259  -0.002253 -45.613860   0.005592  -1.288148  -4.165009   4.776585  -3.240820  -4.198761  -8.389331  49.924213   0.001050   0.003508 -14.142612  -5.637716   4.831696 -26.846489   0.003138   0.007156 -12.943653   1.372624   7.710112  64.653300  -0.008489  -0.001191 -16.774618   4.437334   1.399440 -18.661014   0.001661  -0.013145
 -2.302431   0.867564   3.636296 -14.271029 -18.988000  -6.325119  29.229015   2.728590   0.112187   9.866836   0.398302   0.280763  -3.292199  -4.024248   0.980444  -0.084141   8.229216  -0.430132   5.862001  15.061355  48.567360  -0.026862  62.323757   0.021474   1.128571   3.294096  -4.602950   5.107563   0.191660  -0.022381  17.179840  -3.680211 -56.535869  -0.001658 -45.811572   0.005998  -1.378902  -4.183494   4.854599  -4.193246  -3.912862  -8.566234  48.889841   0.002348   0.006444 -12.121305  -5.234325   5.370730 -27.864007   0.006312   0.008755 -13.669499   1.525003   7.719249  64.854963  -0.007436  -0.001485 -15.682238   4.472029   1.333751 -17.562445  -0.000289  -0.015027
 -2.299007   0.873934   3.631523 -13.541869 -19.766811  -6.068230  28.976691   2.663748   0.105856  10.097451   0.432781   0.228863  -3.106860  -3.890757   0.973939   0.286451   8.021238  -0.903578   6.197558  14.852911  48.792040  -0.022590  62.184998   0.017374   1.084159   3.336982  -4.529035   5.222638   0.257832   0.228547  17.314770  -3.576680 -56.764844  -0.001078 -45.996232   0.006352  -1.466115  -4.200767   4.826267  -5.122940  -3.617607  -8.750184  47.563911   0.003743   0.010325  -9.799422  -4.813516   5.787769 -29.093227   0.008220   0.010577 -14.326631   1.719937   7.616661  64.954120  -0.006248  -0.001559 -14.653266   4.501950   1.268868 -16.475217  -0.001244  -0.017329
 -2.295273   0.880742   3.626970 -12.747400 -20.621639  -5.752336  28.683701   2.587899   0.048931  10.289650   0.445419   0.160050  -2.937177  -3.765809   0.966110   0.668369   7.775505  -1.361658   6.548032  14.638090  49.009558  -0.018984  62.052441   0.013893   1.039129   3.357330  -4.412599   5.359086   0.351773   0.486341  17.470195  -3.466186 -56.982374  -0.000634 -46.165298   0.006594  -1.551387  -4.206247   4.755232  -6.016087  -3.312807  -8.952757  46.006629   0.005269   0.015056  -7.368271  -4.417380   6.100929 -30.305000   0.008538   0.012428 -14.934032   1.944750   7.428013  65.055399  -0.005323  -0.001718 -13.693575   4.527258   1.206152 -15.482411  -0.001876  -0.019557
 -2.291314   0.887656   3.622567 -11.907817 -21.550986  -5.381282  28.367693   2.506363  -0.056258  10.447312   0.441594   0.070202  -2.781816  -3.649612   0.954216   1.042170   7.510376  -1.810296   6.896735  14.422434  49.210457  -0.015891  61.927475   0.010940   0.994019   3.358890  -4.289632   5.506727   0.463238   0.759850  17.637132  -3.348371 -57.175472  -0.000345 -46.319290   0.006714  -1.634718  -4.194893   4.682209  -6.877403  -3.002626  -9.172179  44.287569   0.006866   0.020447  -4.914988  -4.053109   6.329971 -31.428452   0.007787   0.014165 -15.490575   2.186377   7.185459  65.179676  -0.004705  -0.002035 -12.798001   4.548584   1.146131 -14.579830  -0.002564  -0.021532
 -2.287210   0.894428   3.618275 -11.036928 -22.516807  -4.958781  28.039624   2.412452  -0.196586  10.574960   0.418835  -0.032885  -2.638848  -3.541994   0.939263   1.400078   7.233978  -2.251162   7.236611  14.207949  49.391551  -0.013239  61.810586   0.008458   0.949463   3.350215  -4.180542   5.657116   0.582877   1.050472  17.807602  -3.225643 -57.339588  -0.000189 -46.460153   0.006714  -1.715550  -4.169595   4.626494  -7.705778  -2.671489  -9.397563  42.471065   0.008003   0.025514  -2.487069  -3.697213   6.484159 -32.465805   0.006564   0.015082 -15.997953   2.429610   6.914126  65.326568  -0.004344  -0.002457 -11.961951   4.566691   1.089485 -13.758635  -0.003371  -0.022939
 -2.283023   0.900891   3.614075 -10.150753 -23.509393  -4.489808  27.708903   2.311104  -0.367183  10.678308   0.380902  -0.147378  -2.506845  -3.442189   0.921838   1.738423   6.953565  -2.682407   7.563573  13.996938  49.553115  -0.010978  61.701543   0.006398   0.905926   3.335961  -4.092502   5.804861   0.704887   1.353933  17.976257  -3.100411 -57.475233  -0.000133 -46.589374   0.006611  -1.793678  -4.133869   4.596751  -8.508399  -2.351390  -9.609548  40.632839   0.009196   0.030066  -0.119930  -3.358941   6.600060 -33.437769   0.005473   0.015859 -16.447804   2.672611   6.631624  65.489234  -0.004178  -0.002905 -11.181330   4.582140   1.036263 -13.010008  -0.004292  -0.023751
 -2.278560   0.908134   3.609708  -8.974636 -24.491216  -3.995501  27.140541   2.219665  -0.489408  10.796535   0.397306  -0.158062  -2.296232  -3.230792   0.880463   2.206597   6.637093  -3.179377   7.867801  13.776235  49.768568  -0.007771  61.866254   0.005309   0.860106   3.165665  -4.071611   6.089689   0.655957   1.549989  18.003250  -3.096185 -57.608987  -0.000229 -46.533229   0.004586  -1.868377  -4.070451   4.635326  -9.464926  -1.951363  -9.686511  38.447186   0.008741   0.033559   2.951618  -3.140950   7.068136 -35.014741   0.007095   0.021561 -16.929242   2.952004   6.304283  64.624875  -0.000502   0.003389  -9.894493   4.472532   0.983912 -12.558907  -0.003733  -0.022830
 -2.273991   0.915459   3.605271  -7.721923 -25.460792  -3.478461  26.565237   2.119082  -0.625919  10.880168   0.398202  -0.155071  -2.092016  -3.026378   0.850587   2.660608   6.314707  -3.662113   8.167857  13.577387  49.990303  -0.005139  62.045812   0.004490   0.824737   3.117900  -3.981727   6.360124   0.604530   1.756072  18.031108  -3.099437 -57.737267  -0.000306 -46.484213   0.003028  -1.937659  -3.993448   4.609889 -10.407055  -1.603493  -9.681317  36.111843   0.008937   0.037025   6.260603  -2.887284   7.474268 -36.844948   0.008373   0.027399 -17.421994   3.248835   5.907002  63.553051   0.002216   0.010597  -8.696989   4.366675   0.935545 -12.095820  -0.002915  -0.022316
 -2.269369   0.922508   3.600858  -6.470772 -26.456352  -2.948869  26.014626   2.023702  -0.792754  10.950096   0.391028  -0.165716  -1.899336  -2.835220   0.820762   3.090306   5.997070  -4.126558   8.457106  13.391074  50.200952  -0.003200  62.220664   0.003942   0.794384   3.118131  -3.861851   6.620257   0.565341   1.979518  18.065155  -3.096504 -57.846911  -0.000352 -46.440798   0.001845  -2.002913  -3.929680   4.575072 -11.323289  -1.306042  -9.648059  33.738887   0.009567   0.041439   9.533669  -2.674800   7.809062 -38.099746   0.007594   0.029812 -17.891765   3.565079   5.453302  62.493874   0.003830   0.017030  -7.582601   4.266029   0.891510 -11.671998  -0.002106  -0.021759
 -2.264736   0.929152   3.596497  -5.256965 -27.473436  -2.433339  25.503377   1.933996  -0.973998  11.017234   0.379233  -0.188280  -1.718393  -2.656947   0.789644   3.491941   5.689289  -4.571027   8.732007  13.213905  50.394368  -0.001855  62.385785   0.003613   0.766298   3.131053  -3.741932   6.868896   0.536064   2.210383  18.103355  -3.086748 -57.938026  -0.000381 -46.399497   0.000919  -2.065358  -3.867519   4.553656 -12.214873  -1.040239  -9.580846  31.421034   0.010034   0.045945  12.650745  -2.469650   8.096915 -38.343434   0.006143   0.025478 -18.320971   3.886283   4.975432  61.501296   0.004626   0.022173  -6.543427   4.170730   0.851863 -11.285883  -0.001410  -0.021114
 -2.260132   0.935298   3.592211  -4.095288 -28.498148  -1.938154  25.030692   1.845797  -1.164837  11.085351   0.361519  -0.218848  -1.547775  -2.490915   0.758242   3.867121   5.391746  -4.993875   8.992895  13.044773  50.571728  -0.000971  62.540395   0.003443   0.739496   3.145254  -3.630603   7.105578   0.514327   2.443780  18.144204  -3.071513 -58.012771  -0.000399 -46.359468   0.000193  -2.125450  -3.801292   4.547766 -13.077594  -0.801200  -9.480556  29.191048   0.010141   0.049958  15.612792  -2.265060   8.345198 -37.783543   0.004563   0.016604 -18.704367   4.205439   4.486361  60.584953   0.004840   0.025944  -5.573728   4.080750   0.816467 -10.933980  -0.000839  -0.020350
 -2.255585   0.940875   3.588017  -2.992493 -29.516904  -1.464865  24.592681   1.756189  -1.361304  11.154214   0.336273  -0.254773  -1.386880  -2.336389   0.727152   4.218432   5.103858  -5.394263   9.241069  12.882938  50.734982  -0.000432  62.684525   0.003380   0.713590   3.156565  -3.528698   7.329666   0.497872   2.676073  18.186045  -3.052466 -58.073639  -0.000406 -46.320760  -0.000366  -2.183281  -3.730586   4.555380 -13.907598  -0.585712  -9.350370  27.064708   0.009847   0.053098  18.419164  -2.061361   8.559589 -36.643457   0.002732   0.005568 -19.042410   4.519093   3.993469  59.742495   0.004656   0.028439  -4.668629   3.995950   0.785056 -10.612912  -0.000385  -0.019459
 -2.251285   0.945840   3.583927  -1.880346 -30.684766  -1.130764  24.001469   1.874387  -1.425403  11.341672   0.287486  -0.270077  -1.225043  -2.052630   0.597426   4.450243   4.896751  -5.820782   9.413398  12.649228  50.868065  -0.000518  62.880429   0.004142   0.751534   3.015984  -3.277171   7.540458   0.484816   2.734745  18.193798  -3.125057 -58.087148  -0.001610 -45.917752  -0.006023  -2.139035  -3.829010   4.598842 -15.165689  -0.522788  -8.994422  26.537813   0.008967   0.047048  18.437742  -2.394427   8.600362 -33.461393   0.003818  -0.030548 -19.084707   4.933799   3.771631  57.737807   0.006060   0.039776  -2.809638   3.823009   0.930271 -10.494711  -0.000439  -0.016805
 -2.247161   0.950107   3.579948  -0.796123 -31.771011  -0.867250  23.416298   1.983452  -1.404664  11.500374   0.250090  -0.256576  -1.070037  -1.784506   0.484280   4.642026   4.707299  -6.246852   9.556603  12.428559  50.969459  -0.000830  63.071249   0.004842   0.789627   2.909297  -3.089175   7.747479   0.473401   2.748844  18.210173  -3.197878 -58.124561  -0.002530 -45.525061  -0.010083  -2.099362  -3.820746   4.584642 -16.337587  -0.520846  -8.553439  26.275750   0.007698   0.039799  18.444350  -2.709362   8.640309 -30.682809   0.002020  -0.054193 -19.093872   5.276875   3.654035  55.550170   0.006542   0.049255  -1.072397   3.666422   1.073552 -10.287848  -0.000608  -0.015449
